<svg xmlns="http://www.w3.org/2000/svg" xmlns:xlink="http://www.w3.org/1999/xlink" width="661.528" height="456.998" viewBox="0 0 661.528 456.998">
  <defs>
    <filter id="Logo" x="0" y="0" width="661.528" height="456.998" filterUnits="userSpaceOnUse">
      <feOffset dy="3" input="SourceAlpha"/>
      <feGaussianBlur stdDeviation="3" result="blur"/>
      <feFlood flood-color="#fff8db"/>
      <feComposite operator="in" in2="blur"/>
      <feComposite in="SourceGraphic"/>
    </filter>
  </defs>
  <g transform="matrix(1, 0, 0, 1, 0, 0)" filter="url(#Logo)">
    <g id="Logo-2" data-name="Logo" transform="translate(-427.48 -521.75) rotate(13)" fill="#7b1659">
      <path d="M 839.744384765625 700.4873046875 L 832.6785278320313 690.7056884765625 L 640.5149536132813 424.6844787597656 L 630.0120239257813 410.144775390625 L 647.8474731445313 412.0449829101563 L 777.0838623046875 425.8140563964844 L 782.0214233398438 426.3401184082031 L 783.7411499023438 430.9983215332031 L 840.06494140625 583.5611572265625 L 881.5558471679688 495.6296997070313 L 888.1785278320313 481.5942687988281 L 895.768798828125 495.1309204101563 L 947.2763671875 586.9911499023438 L 1023.841613769531 430.2576293945313 L 1025.790161132813 426.2688293457031 L 1030.205810546875 425.8116149902344 L 1163.176025390625 412.0425415039063 L 1182.3955078125 410.0523376464844 L 1170.207885742188 425.0460510253906 L 953.9720458984375 691.0672607421875 L 947.3833618164063 699.1729125976563 L 941.2747802734375 690.6995239257813 L 889.3652954101563 618.6952514648438 L 846.0032348632813 690.1707153320313 L 839.744384765625 700.4873046875 Z" stroke="none"/>
      <path d="M 647 419.9999389648438 L 839.1635131835938 686.021240234375 L 888.7908325195313 604.218505859375 L 947.7642211914063 686.021240234375 L 1164 419.9999389648438 L 1031.02978515625 433.76904296875 L 947.7642211914063 604.218505859375 L 888.7908325195313 499.0435180664063 L 839.1635131835938 604.218505859375 L 776.236328125 433.76904296875 L 647 419.9999389648438 M 1200.791015625 400.1046752929688 L 1176.415649414063 430.092041015625 L 960.179931640625 696.11328125 L 947.0025634765625 712.3245849609375 L 934.785400390625 695.3779296875 L 889.9397583007813 633.1720581054688 L 852.843017578125 694.3201293945313 L 840.3252563476563 714.9534912109375 L 826.1934814453125 695.3901977539063 L 634.030029296875 429.3689575195313 L 613.0240478515625 400.28955078125 L 648.695068359375 404.0900268554688 L 777.931396484375 417.859130859375 L 787.8065795898438 418.9111938476563 L 791.24609375 428.2277221679688 L 840.96630859375 562.9038696289063 L 874.3208618164063 492.2157592773438 L 887.566162109375 464.1449584960938 L 902.7466430664063 491.21826171875 L 946.7885131835938 569.7638549804688 L 1016.653442382813 426.74609375 L 1020.550476074219 418.7686157226563 L 1029.3818359375 417.8541259765625 L 1162.35205078125 404.0850219726563 L 1200.791015625 400.1046752929688 Z" stroke="none" fill="#dba3c8"/>
    </g>
  </g>
</svg>
